<?xml version="1.0" standalone="no"?><!DOCTYPE svg PUBLIC "-//W3C//DTD SVG 1.1//EN" "http://www.w3.org/Graphics/SVG/1.1/DTD/svg11.dtd"><svg t="1552273641744" class="icon" style="" viewBox="0 0 1024 1024" version="1.1" xmlns="http://www.w3.org/2000/svg" p-id="1583" xmlns:xlink="http://www.w3.org/1999/xlink" width="48" height="48"><defs><style type="text/css"></style></defs><path d="M905.450308 125.1037C896.061252 125.413837 886.857235 125.529313 877.875951 125.529313 640.975313 125.529313 536.595731 24.886788 535.697946 23.964627L512.065963 0 488.341461 23.964627C487.370003 25.002264 385.085824 125.529313 146.190869 125.529313 137.182172 125.529313 128.039835 125.413837 118.556545 125.1037L85.333333 124.052866 85.333333 580.377175C85.333333 699.862129 128.353375 874.191718 500.387895 1007.504132L511.999142 1011.694272 523.60525 1007.504132C895.638059 874.18512 938.666667 699.862129 938.666667 580.377175L938.666667 124.052866 905.450308 125.1037 905.450308 125.1037ZM475.450355 698.445071 261.083455 511.162345 317.998615 465.71418 431.988275 548.583255C431.988275 548.583255 589.347494 388.025039 741.338848 313.003401L763.015919 337.149491C763.015919 337.149491 573.091405 492.385901 475.450355 698.445071L475.450355 698.445071Z" p-id="1584"></path></svg>